:SAMPLES-PER-SECOND 30
:FULLY-SPECIFIED
:DEGREES
1227
root  -4.3515 38.922 -2.45308 22.1028 82.5472 25.327
RightUpLeg  -19.7074 0.608584 -7.32644
RightLeg  18.5537 4.42222 1.1841
RightFoot  -2.64077 -0.760013 9.73185
RightToes  -8.3237e-009 0 -3.6325e-017
Spine  6.63432 -2.07092 -4.85911
Spine1  5.52417 -2.73026 0.645893
HEad  -17.3103 6.3296 -11.0324
LeftShoulder1  -0.315497 4.30785 -33.1037
LeftArm  21.0437 -7.13339 -44.7505
LeftForeArm  20.4962 -17.9622 -7.15247
LeftHand  -0.0524631 6.87882 -1.02829
RightShoulder  -0.731118 -5.58714 28.4379
RightArm  15.583 -17.506 42.688
RightForeArm  19.9519 10.8032 6.4761
RightHand  -0.0247312 4.3247 -0.580843
LeftUpLeg  6.17084 6.40152 -5.36163
LeftLeg  13.7567 4.81869 0.1771
LeftFoot  -17.6826 0.273871 3.02615
LeftToes  -1.18267e-011 3.61711e-011 9.57411e-011
1228
root  -3.29315 38.8423 -2.23791 22.8882 82.7255 25.5753
RightUpLeg  -18.9317 -3.73257 -5.97514
RightLeg  7.19992 9.3412 0.499736
RightFoot  -2.98157 -0.762005 10.122
RightToes  -8.3237e-009 0 -3.6325e-017
Spine  6.14859 -2.07934 -4.00445
Spine1  5.34477 -2.61149 0.771768
HEad  -17.4904 6.46267 -11.3611
LeftShoulder1  -0.297865 4.26343 -33.0753
LeftArm  24.2184 -8.29774 -44.9054
LeftForeArm  16.706 -21.1823 -5.14988
LeftHand  -0.0406458 6.44139 -0.480859
RightShoulder  -0.711271 -5.53099 28.4194
RightArm  12.9184 -17.277 42.5613
RightForeArm  20.5103 9.07937 6.09212
RightHand  -0.00327374 3.56113 -0.29324
LeftUpLeg  8.12536 6.64082 -4.81647
LeftLeg  12.4041 4.19392 -0.196707
LeftFoot  -18.5894 0.283913 2.72489
LeftToes  -1.18267e-011 3.61711e-011 9.57411e-011
1229
root  -2.19541 38.7202 -1.9607 24.1787 83.5803 26.8907
RightUpLeg  -17.493 -6.7275 -4.91826
RightLeg  -1.03708 10.2076 -0.53673
RightFoot  -3.28411 -0.799727 10.894
RightToes  -8.3237e-009 0 -3.6325e-017
Spine  6.28854 -2.17749 -3.17405
Spine1  5.34744 -2.71977 1.04431
HEad  -18.1683 5.64237 -11.1721
LeftShoulder1  -0.285105 4.23129 -33.0449
LeftArm  23.5915 -8.84041 -44.9534
LeftForeArm  15.9265 -24.3987 -4.23024
LeftHand  -0.0316871 6.12519 0.228124
RightShoulder  -0.727435 -5.57503 28.4638
RightArm  11.3994 -16.6775 42.5493
RightForeArm  20.4824 7.98949 5.67484
RightHand  0.00447708 3.96509 -0.211602
LeftUpLeg  10.4386 6.99356 -3.87216
LeftLeg  11.6899 2.90229 -0.311558
LeftFoot  -19.6431 0.279118 2.21603
LeftToes  -1.18267e-011 3.61711e-011 9.57411e-011
1230
root  -1.05898 38.5113 -1.62476 25.7363 84.3983 28.3274
RightUpLeg  -17.8196 -6.9418 -4.76366
RightLeg  -1.02947 6.3164 0.105257
RightFoot  -2.54541 -0.675704 9.08999
RightToes  -8.3237e-009 0 -3.6325e-017
Spine  5.86108 -2.17378 -2.3214
Spine1  6.07724 -2.70127 1.17385
HEad  -18.9437 5.20591 -10.8843
LeftShoulder1  -0.356851 4.41224 -33.1365
LeftArm  21.7784 -10.4118 -45.1442
LeftForeArm  16.7335 -25.8243 -4.65053
LeftHand  -0.0272899 5.77769 0.930329
RightShoulder  -0.727845 -5.55589 28.8054
RightArm  11.1593 -14.9455 42.5534
RightForeArm  21.0965 6.68729 5.63079
RightHand  0.0353613 4.09506 0.172139
LeftUpLeg  12.1992 6.93665 -3.16752
LeftLeg  11.8525 2.01783 0.182607
LeftFoot  -20.8915 0.282352 1.88301
LeftToes  -1.18267e-011 3.61711e-011 9.57411e-011
1231
root  0.0871833 38.3741 -1.25813 18.9098 85.5185 21.3381
RightUpLeg  -19.1829 -6.52537 -3.58035
RightLeg  4.43664 1.96827 0.618385
RightFoot  4.0067 -0.535215 4.00764
RightToes  -8.3237e-009 0 -3.6325e-017
Spine  6.17828 -2.11644 -0.44358
Spine1  5.94594 -2.6361 1.44131
HEad  -19.4098 4.39282 -10.5206
LeftShoulder1  -0.310047 4.29645 -32.9723
LeftArm  19.488 -10.0469 -45.137
LeftForeArm  18.5604 -27.8687 -5.00855
LeftHand  -0.0275483 5.42624 1.28638
RightShoulder  -0.736823 -5.57314 28.9413
RightArm  11.4736 -13.4664 42.5893
RightForeArm  21.1088 6.33472 5.8327
RightHand  -0.0465148 3.81807 -0.833302
LeftUpLeg  13.8372 6.29421 -1.75768
LeftLeg  12.1793 1.52675 0.865591
LeftFoot  -21.63 0.226552 1.07485
LeftToes  -1.18267e-011 3.61711e-011 9.57411e-011
1232
root  1.34065 38.2277 -0.878468 0.654419 86.4907 3.31595
RightUpLeg  -19.5302 -6.71112 -2.0594
RightLeg  8.75124 1.74267 0.987468
RightFoot  8.16722 -0.52399 3.33987
RightToes  -8.3237e-009 0 -3.6325e-017
Spine  6.27228 -2.13357 2.0794
Spine1  6.3703 -2.56896 1.46093
HEad  -20.3246 3.61973 -10.5234
LeftShoulder1  -0.348435 4.38068 -33.6034
LeftArm  17.8194 -9.43767 -44.6664
LeftForeArm  20.0968 -29.6398 -5.33233
LeftHand  -0.0237244 5.70189 1.46275
RightShoulder  -0.686242 -5.4557 28.4747
RightArm  12.0242 -11.2485 43.3308
RightForeArm  22.1004 5.73585 6.18154
RightHand  -0.0105197 2.56085 -0.34145
LeftUpLeg  15.0499 4.10632 -0.213818
LeftLeg  14.4907 2.62536 1.63427
LeftFoot  -21.5985 0.123407 -0.0591703
LeftToes  -1.18267e-011 3.61711e-011 9.57411e-011
